<?xml version="1.0" encoding="UTF-8"?>
<svg id="Camada_2" data-name="Camada 2" xmlns="http://www.w3.org/2000/svg" viewBox="0 0 400 400">
  <defs>
    <style>
      .cls-1 {
        fill: #d0a305;
      }

      .cls-2 {
        fill: #fff;
      }

      .cls-3 {
        fill: #ffda16;
      }

      .cls-4 {
        opacity: .2;
      }

      .cls-5 {
        fill: #efab00;
      }
    </style>
  </defs>
  <g id="icons">
    <g>
      <path class="cls-5" d="M400,200c0,108.28-86.04,196.46-193.49,199.89-.3,0-.6.02-.91.03-1.86.06-3.73.08-5.6.08-27.53,0-53.76-5.56-77.63-15.63-14.99-6.31-29.05-14.41-41.91-24.01-6.41-4.79-12.52-9.94-18.3-15.44-19.99-19.02-36.04-42.13-46.83-67.99C5.46,253.25,0,227.26,0,200,0,89.54,89.54,0,200,0c1.88,0,3.77.03,5.64.08.37,0,.75.02,1.12.03,24.8.83,48.46,6.16,70.17,15.22,25.86,10.79,48.97,26.84,67.99,46.83,5.5,5.79,10.66,11.9,15.43,18.31,9.61,12.86,17.71,26.91,24.02,41.9,10.07,23.87,15.63,50.1,15.63,77.63Z"/>
      <g>
        <path class="cls-1" d="M262.73,208.07c-5.24-4.92-11.51-9.26-18.82-13.03-7.31-3.77-15.42-7.45-24.33-11.03-5.52-2.21-10.14-4.35-13.86-6.41-3.72-2.07-6.71-4.28-8.96-6.62-2.26-2.34-3.84-4.9-4.76-7.65-.92-2.76-1.38-5.84-1.38-9.24s.46-6.57,1.38-9.51c.92-2.94,2.35-5.49,4.28-7.65,1.93-2.16,4.38-3.86,7.37-5.11,2.99-1.24,6.55-1.86,10.69-1.86,7.62,0,13.71,2.74,18.26,8.21s6.83,13.71,6.83,24.74h39.84c0-9.19-1.22-17.48-3.65-24.88-2.44-7.4-5.91-13.81-10.41-19.23-4.5-5.43-9.97-9.84-16.41-13.24-6.43-3.4-13.6-5.65-21.5-6.75v-29.92h-22.06v29.5c-8.28.83-15.74,2.74-22.41,5.72-6.66,2.99-12.38,6.87-17.16,11.65-4.78,4.78-8.46,10.39-11.03,16.82-2.57,6.44-3.86,13.56-3.86,21.37,0,9.01,1.45,16.78,4.34,23.3,2.9,6.53,6.96,12.23,12.2,17.1,5.24,4.87,11.54,9.17,18.89,12.89,7.35,3.72,15.53,7.28,24.54,10.68,5.24,1.93,9.67,3.91,13.31,5.93,3.63,2.02,6.59,4.23,8.89,6.62,2.29,2.39,3.95,5.05,4.96,8,1.01,2.94,1.52,6.34,1.52,10.2,0,3.4-.55,6.55-1.66,9.44-1.1,2.9-2.75,5.4-4.96,7.51-2.21,2.12-4.94,3.77-8.2,4.97-3.27,1.19-7.06,1.79-11.38,1.79-3.77,0-7.47-.53-11.1-1.58-3.63-1.06-6.87-2.9-9.71-5.52-2.85-2.62-5.13-6.11-6.83-10.48-1.7-4.36-2.55-9.81-2.55-16.33h-39.84c0,11.02,1.65,20.49,4.96,28.4,3.31,7.9,7.72,14.45,13.23,19.64,5.52,5.2,11.84,9.17,18.96,11.93,7.12,2.75,14.5,4.55,22.13,5.37v27.3h21.92v-27.43c8.27-.83,15.79-2.67,22.54-5.52,6.76-2.85,12.52-6.62,17.3-11.3,4.78-4.69,8.48-10.25,11.1-16.69,2.62-6.43,3.93-13.69,3.93-21.78,0-8.91-1.45-16.63-4.34-23.16-2.9-6.53-6.96-12.25-12.2-17.16Z"/>
        <path class="cls-1" d="M384.37,122.37c-6.31-14.99-14.41-29.04-24.02-41.9-4.77-6.41-9.93-12.52-15.43-18.31-19.02-19.99-42.13-36.04-67.99-46.83C255.22,6.27,231.56.94,206.76.11c-.37-.01-.75-.02-1.12-.03C97.77,3.04,11.23,91.41,11.23,200s86.52,196.94,194.37,199.92c.31-.01.61-.02.91-.03,107.45-3.43,193.49-91.61,193.49-199.89,0-27.53-5.56-53.76-15.63-77.63ZM365.18,265.02c-8.41,19.89-20.46,37.76-35.82,53.11-15.35,15.35-33.22,27.4-53.11,35.81-20.57,8.71-42.45,13.12-65.02,13.12s-44.44-4.41-65.01-13.12c-19.89-8.41-37.76-20.46-53.11-35.81-15.36-15.35-27.41-33.22-35.82-53.11-8.7-20.58-13.11-42.45-13.11-65.02s4.41-44.44,13.11-65.02c8.41-19.89,20.46-37.76,35.82-53.11,15.35-15.35,33.22-27.4,53.11-35.81,20.57-8.71,42.45-13.12,65.01-13.12s44.45,4.41,65.02,13.12c19.89,8.41,37.76,20.46,53.11,35.81,15.36,15.35,27.41,33.22,35.82,53.11,8.7,20.58,13.11,42.45,13.11,65.02s-4.41,44.44-13.11,65.02Z"/>
      </g>
      <g>
        <path class="cls-3" d="M228.19,248.67c0-3.86-.51-7.26-1.52-10.2-1.01-2.94-2.67-5.61-4.96-8-2.3-2.39-5.26-4.59-8.89-6.62-3.63-2.02-8.07-4-13.3-5.93-9.01-3.4-17.19-6.96-24.54-10.68-7.35-3.72-13.65-8.02-18.89-12.89-5.24-4.87-9.31-10.57-12.2-17.1-2.9-6.52-4.34-14.29-4.34-23.3,0-7.81,1.29-14.93,3.86-21.37,2.57-6.43,6.25-12.04,11.03-16.82,4.78-4.78,10.5-8.66,17.16-11.65,6.66-2.99,14.13-4.89,22.4-5.72v-29.5h22.06v29.92c7.9,1.1,15.07,3.36,21.51,6.76,6.43,3.4,11.9,7.81,16.41,13.24,4.5,5.42,7.97,11.84,10.41,19.23,2.43,7.4,3.65,15.7,3.65,24.89h-39.84c0-11.03-2.27-19.28-6.82-24.75-4.55-5.47-10.64-8.2-18.27-8.2-4.14,0-7.7.62-10.68,1.86-2.99,1.24-5.45,2.94-7.38,5.1-1.93,2.16-3.36,4.71-4.27,7.65-.92,2.94-1.38,6.11-1.38,9.51s.46,6.48,1.38,9.24c.92,2.76,2.5,5.31,4.76,7.65,2.25,2.34,5.24,4.55,8.96,6.62,3.72,2.07,8.34,4.2,13.86,6.41,8.91,3.58,17.03,7.26,24.33,11.03,7.31,3.77,13.58,8.11,18.82,13.03,5.24,4.92,9.31,10.64,12.2,17.16,2.9,6.53,4.34,14.25,4.34,23.16,0,8.09-1.31,15.35-3.93,21.78-2.62,6.43-6.32,11.99-11.1,16.68-4.78,4.69-10.55,8.46-17.3,11.31-6.76,2.85-14.27,4.69-22.54,5.51v27.44h-21.92v-27.3c-7.63-.83-15.01-2.62-22.13-5.38-7.12-2.76-13.44-6.73-18.96-11.93-5.51-5.19-9.93-11.74-13.24-19.65-3.31-7.9-4.96-17.37-4.96-28.4h39.84c0,6.53.85,11.97,2.55,16.34,1.7,4.37,3.97,7.86,6.82,10.48,2.85,2.62,6.09,4.46,9.72,5.51,3.63,1.06,7.33,1.59,11.1,1.59,4.32,0,8.11-.6,11.37-1.79,3.26-1.19,6-2.85,8.2-4.96,2.21-2.11,3.86-4.62,4.96-7.51,1.1-2.9,1.65-6.04,1.65-9.44Z"/>
        <path class="cls-3" d="M200,32.94c22.57,0,44.44,4.41,65.02,13.11,19.89,8.41,37.76,20.46,53.11,35.82,15.35,15.35,27.4,33.22,35.82,53.11,8.7,20.57,13.11,42.45,13.11,65.02s-4.41,44.44-13.11,65.02c-8.41,19.89-20.46,37.76-35.82,53.11-15.35,15.35-33.22,27.4-53.11,35.82-20.57,8.7-42.45,13.11-65.02,13.11s-44.44-4.41-65.02-13.11c-19.89-8.41-37.76-20.46-53.11-35.82-15.35-15.35-27.4-33.22-35.82-53.11-8.7-20.57-13.11-42.45-13.11-65.02s4.41-44.44,13.11-65.02c8.41-19.89,20.46-37.76,35.82-53.11,15.35-15.35,33.22-27.4,53.11-35.82,20.57-8.7,42.45-13.11,65.02-13.11M200,0C89.54,0,0,89.54,0,200s89.54,200,200,200,200-89.54,200-200S310.46,0,200,0h0Z"/>
      </g>
      <g class="cls-4">
        <path class="cls-2" d="M389.98,137.34l-26.77,26.77-119.34,119.34-18.92,18.91-60.85,60.85-26.77,26.77c-5.08-1.67-10.07-3.54-14.96-5.61-14.99-6.31-29.05-14.41-41.91-24.01-6.41-4.79-12.52-9.94-18.3-15.44-5.94-5.65-11.52-11.65-16.71-17.98l23.41-23.41,63.23-63.23,49.12-49.12,20.95-20.96,39.69-39.69,61.67-61.66,23.42-23.43c6.33,5.2,12.33,10.79,17.98,16.72,5.5,5.79,10.66,11.9,15.43,18.31,9.61,12.86,17.71,26.91,24.02,41.9,2.06,4.9,3.94,9.89,5.61,14.97Z"/>
        <path class="cls-2" d="M291.33,22.03l-24.71,24.72-50.3,50.29-94.13,94.14-75.45,75.45-24.71,24.71c-2.42-4.7-4.66-9.51-6.7-14.41-3.82-9.17-6.99-18.7-9.42-28.5l28.23-28.24L220.2,34.14l28.23-28.23c9.8,2.43,19.33,5.59,28.5,9.42,4.9,2.05,9.7,4.28,14.4,6.7Z"/>
      </g>
    </g>
  </g>
</svg>